<svg viewBox="0 0 46 49" version="1.1" xmlns="http://www.w3.org/2000/svg" xmlns:xlink="http://www.w3.org/1999/xlink" class="sc-be16b72f-0 havxjZ">
  <path d="M3.12347 23.9976C3.12347 24.3042 3.03187 24.6039 2.86027 24.8589C2.68866 25.1138 2.44475 25.3125 2.15938 25.4299C1.87401 25.5472 1.56 25.5779 1.25705 25.5181C0.954108 25.4583 0.675834 25.3106 0.457422 25.0938C0.239009 24.877 0.0902688 24.6008 0.030009 24.3C-0.0302508 23.9993 0.000676594 23.6876 0.11888 23.4043C0.237084 23.121 0.437256 22.8789 0.694082 22.7085C0.950907 22.5382 1.25285 22.4473 1.56173 22.4473C1.97549 22.4487 2.37188 22.6125 2.66445 22.9029C2.95703 23.1933 3.12203 23.5868 3.12347 23.9976Z"></path>
  <path d="M3.35276 19.8773C3.35276 20.1389 3.27462 20.3947 3.12822 20.6122C2.98181 20.8297 2.77372 20.9992 2.53026 21.0993C2.2868 21.1994 2.0189 21.2256 1.76044 21.1746C1.50198 21.1235 1.26457 20.9976 1.07824 20.8126C0.891899 20.6276 0.765001 20.3919 0.71359 20.1354C0.66218 19.8788 0.688565 19.6129 0.78941 19.3712C0.890256 19.1295 1.06103 18.9229 1.28014 18.7776C1.49925 18.6323 1.75685 18.5547 2.02038 18.5547C2.19555 18.554 2.36913 18.5877 2.53111 18.6539C2.69309 18.7201 2.84026 18.8175 2.96413 18.9405C3.08799 19.0635 3.18611 19.2095 3.25281 19.3703C3.31951 19.5311 3.35349 19.7034 3.35276 19.8773Z"></path>
  <path d="M4.31391 16.4678C4.31391 16.6897 4.24762 16.9067 4.12342 17.0912C3.99921 17.2757 3.82268 17.4195 3.61613 17.5044C3.40959 17.5894 3.18231 17.6116 2.96305 17.5683C2.74378 17.525 2.54237 17.4181 2.38429 17.2612C2.22621 17.1043 2.11856 16.9044 2.07494 16.6867C2.03133 16.469 2.05371 16.2434 2.13927 16.0384C2.22482 15.8333 2.3697 15.6581 2.55558 15.5348C2.74147 15.4115 2.96001 15.3457 3.18357 15.3457C3.48335 15.3457 3.77086 15.4639 3.98284 15.6744C4.19482 15.8848 4.31391 16.1702 4.31391 16.4678Z"></path>
  <path d="M5.65173 13.7405C5.65498 13.9301 5.60126 14.1163 5.49741 14.2755C5.39356 14.4346 5.2443 14.5594 5.06868 14.634C4.89305 14.7085 4.69904 14.7294 4.51139 14.694C4.32374 14.6586 4.15098 14.5685 4.01514 14.4352C3.87931 14.3019 3.78657 14.1315 3.74876 13.9456C3.71094 13.7598 3.72978 13.567 3.80286 13.3918C3.87593 13.2166 3.99993 13.067 4.15904 12.9621C4.31814 12.8572 4.50512 12.8017 4.69612 12.8027C4.94957 12.8027 5.19263 12.9027 5.37184 13.0806C5.55105 13.2585 5.65173 13.4998 5.65173 13.7514"></path>
  <path d="M7.2407 11.5733C7.24178 11.7343 7.19467 11.8921 7.10532 12.0265C7.01598 12.1609 6.88844 12.266 6.73887 12.3284C6.5893 12.3907 6.42443 12.4076 6.26519 12.3769C6.10594 12.3461 5.95948 12.2691 5.84439 12.1556C5.72929 12.0421 5.65073 11.8972 5.61868 11.7394C5.58663 11.5815 5.60253 11.4177 5.66436 11.2688C5.72619 11.1199 5.83117 10.9926 5.96599 10.903C6.1008 10.8135 6.25938 10.7656 6.42161 10.7656C6.6379 10.7656 6.84542 10.8505 6.99887 11.0019C7.15233 11.1532 7.23926 11.3586 7.2407 11.5733Z"></path>
  <path d="M8.80789 9.95796C8.80789 10.0941 8.76722 10.2272 8.69102 10.3404C8.61481 10.4536 8.5065 10.5419 8.37978 10.594C8.25306 10.6461 8.11363 10.6597 7.9791 10.6332C7.84458 10.6066 7.72101 10.541 7.62402 10.4447C7.52703 10.3485 7.46098 10.2258 7.43422 10.0923C7.40747 9.95872 7.4212 9.8203 7.47369 9.69451C7.52618 9.56871 7.61506 9.4612 7.72911 9.38555C7.84315 9.30991 7.97723 9.26953 8.11439 9.26953C8.29832 9.26953 8.47471 9.34206 8.60477 9.47117C8.73483 9.60027 8.80789 9.77537 8.80789 9.95796Z"></path>
  <path d="M10.2933 8.78075C10.2933 8.93601 10.2311 9.08492 10.1205 9.19471C10.0099 9.3045 9.85993 9.36618 9.70352 9.36618C9.54711 9.36618 9.3971 9.3045 9.2865 9.19471C9.1759 9.08492 9.11377 8.93601 9.11377 8.78075C9.11377 8.62548 9.1759 8.47657 9.2865 8.36678C9.3971 8.25699 9.54711 8.19531 9.70352 8.19531C9.85993 8.19531 10.0099 8.25699 10.1205 8.36678C10.2311 8.47657 10.2933 8.62548 10.2933 8.78075Z"></path>
  <path d="M11.6476 7.88151C11.6476 7.98015 11.6181 8.07657 11.5629 8.15858C11.5077 8.24059 11.4292 8.30451 11.3374 8.34225C11.2457 8.38 11.1446 8.38988 11.0472 8.37063C10.9497 8.35139 10.8602 8.30389 10.79 8.23415C10.7197 8.1644 10.6719 8.07554 10.6525 7.97881C10.6331 7.88207 10.643 7.7818 10.6811 7.69067C10.7191 7.59954 10.7835 7.52166 10.8661 7.46686C10.9487 7.41206 11.0458 7.38281 11.1452 7.38281C11.2784 7.38281 11.4062 7.43535 11.5004 7.52888C11.5946 7.6224 11.6476 7.74925 11.6476 7.88151Z"></path>
  <path d="M12.9634 7.19234C12.962 7.30404 12.9167 7.41077 12.8371 7.48976C12.7575 7.56875 12.65 7.61375 12.5375 7.61516C12.4533 7.61516 12.3709 7.59036 12.3009 7.5439C12.2308 7.49744 12.1762 7.43141 12.144 7.35415C12.1118 7.27689 12.1033 7.19187 12.1198 7.10986C12.1362 7.02784 12.1768 6.9525 12.2363 6.89337C12.2959 6.83424 12.3718 6.79397 12.4544 6.77766C12.537 6.76134 12.6227 6.76971 12.7005 6.80172C12.7783 6.83372 12.8448 6.88791 12.8916 6.95744C12.9384 7.02697 12.9634 7.10872 12.9634 7.19234Z"></path>
  <path d="M14.0884 6.71132C14.0895 6.7836 14.0688 6.85456 14.029 6.91511C13.9892 6.97566 13.9321 7.02304 13.8651 7.0512C13.798 7.07936 13.724 7.08701 13.6525 7.07317C13.581 7.05933 13.5153 7.02463 13.4638 6.97351C13.4124 6.9224 13.3774 6.85719 13.3635 6.78624C13.3495 6.71528 13.3572 6.64181 13.3856 6.57523C13.414 6.50865 13.4617 6.45199 13.5227 6.4125C13.5837 6.37301 13.6552 6.35248 13.728 6.35356C13.8231 6.35495 13.914 6.3931 13.9813 6.45989C14.0485 6.52668 14.087 6.61687 14.0884 6.71132Z"></path>
  <path d="M15.1149 6.3752C15.1049 6.44942 15.0681 6.51752 15.0114 6.56684C14.9547 6.61616 14.8818 6.64335 14.8064 6.64335C14.7309 6.64335 14.6581 6.61616 14.6013 6.56684C14.5446 6.51752 14.5078 6.44942 14.4978 6.3752C14.492 6.33157 14.4956 6.28719 14.5084 6.24504C14.5212 6.2029 14.543 6.16396 14.5722 6.13084C14.6014 6.09771 14.6374 6.07117 14.6778 6.05298C14.7182 6.0348 14.762 6.02539 14.8064 6.02539C14.8507 6.02539 14.8946 6.0348 14.9349 6.05298C14.9753 6.07117 15.0113 6.09771 15.0406 6.13084C15.0698 6.16396 15.0915 6.2029 15.1043 6.24504C15.1172 6.28719 15.1208 6.33157 15.1149 6.3752Z"></path>
  <path d="M3.35275 28.123C3.35383 27.8612 3.27661 27.6049 3.13086 27.3867C2.98512 27.1685 2.77741 26.9981 2.53404 26.8972C2.29068 26.7962 2.02261 26.7693 1.76379 26.8197C1.50498 26.8701 1.26706 26.9956 1.08017 27.1804C0.893289 27.3652 0.765847 27.6008 0.713993 27.8575C0.662138 28.1142 0.688203 28.3805 0.788886 28.6225C0.889569 28.8645 1.06034 29.0713 1.27957 29.2169C1.49879 29.3625 1.75661 29.4402 2.02036 29.4402C2.19508 29.4409 2.36821 29.4074 2.52983 29.3415C2.69146 29.2756 2.83838 29.1787 2.96218 29.0563C3.08597 28.9339 3.1842 28.7885 3.25123 28.6283C3.31825 28.4682 3.35275 28.2964 3.35275 28.123Z"></path>
  <path d="M4.31391 31.5322C4.31391 31.3103 4.24762 31.0934 4.12342 30.9088C3.99921 30.7243 3.82268 30.5805 3.61613 30.4956C3.40959 30.4106 3.18231 30.3884 2.96305 30.4317C2.74378 30.475 2.54237 30.5819 2.38429 30.7388C2.22621 30.8957 2.11856 31.0957 2.07494 31.3133C2.03133 31.531 2.05371 31.7566 2.13927 31.9616C2.22482 32.1667 2.3697 32.3419 2.55558 32.4652C2.74147 32.5885 2.96001 32.6543 3.18357 32.6543C3.48335 32.6543 3.77086 32.5361 3.98284 32.3257C4.19482 32.1152 4.31391 31.8298 4.31391 31.5322Z"></path>
  <path d="M5.65163 34.2528C5.65162 34.0639 5.59512 33.8793 5.48927 33.7223C5.38342 33.5653 5.233 33.443 5.05707 33.3709C4.88114 33.2989 4.68762 33.2803 4.50105 33.3176C4.31447 33.3548 4.14324 33.4462 4.00905 33.5802C3.87486 33.7142 3.78376 33.8847 3.7473 34.0701C3.71083 34.2555 3.73065 34.4475 3.80423 34.6217C3.87781 34.7959 4.00184 34.9446 4.1606 35.0487C4.31936 35.1529 4.50571 35.208 4.69602 35.2069C4.82197 35.2069 4.94668 35.1822 5.06298 35.1342C5.17928 35.0862 5.28486 35.0158 5.37367 34.9271C5.46248 34.8385 5.53276 34.7333 5.58046 34.6175C5.62816 34.5018 5.65235 34.3779 5.65163 34.2528Z"></path>
  <path d="M7.2407 36.4259C7.24178 36.2649 7.19467 36.1072 7.10532 35.9727C7.01598 35.8383 6.88844 35.7333 6.73887 35.6709C6.5893 35.6085 6.42443 35.5916 6.26519 35.6224C6.10594 35.6531 5.95948 35.7302 5.84439 35.8437C5.72929 35.9572 5.65073 36.102 5.61868 36.2599C5.58663 36.4178 5.60253 36.5815 5.66436 36.7304C5.72619 36.8793 5.83117 37.0066 5.96599 37.0962C6.1008 37.1858 6.25938 37.2336 6.42161 37.2336C6.6379 37.2336 6.84542 37.1487 6.99887 36.9974C7.15233 36.8461 7.23926 36.6407 7.2407 36.4259Z"></path>
  <path d="M8.80789 38.0361C8.80789 37.8999 8.76722 37.7668 8.69102 37.6536C8.61481 37.5404 8.5065 37.4522 8.37978 37.4001C8.25306 37.348 8.11363 37.3343 7.9791 37.3609C7.84458 37.3874 7.72101 37.453 7.62402 37.5493C7.52703 37.6456 7.46098 37.7682 7.43422 37.9018C7.40747 38.0353 7.4212 38.1737 7.47369 38.2995C7.52618 38.4253 7.61506 38.5328 7.72911 38.6085C7.84315 38.6841 7.97723 38.7245 8.11439 38.7245C8.29832 38.7245 8.47471 38.652 8.60477 38.5229C8.73483 38.3938 8.80789 38.2187 8.80789 38.0361Z"></path>
  <path d="M10.2933 39.2182C10.2933 39.1025 10.2587 38.9893 10.1939 38.893C10.1291 38.7967 10.037 38.7217 9.9292 38.6774C9.82144 38.6331 9.70286 38.6215 9.58846 38.6441C9.47406 38.6667 9.36898 38.7224 9.2865 38.8043C9.20403 38.8862 9.14786 38.9905 9.1251 39.104C9.10235 39.2176 9.11403 39.3353 9.15866 39.4423C9.2033 39.5493 9.27889 39.6407 9.37587 39.705C9.47285 39.7693 9.58688 39.8037 9.70352 39.8037C9.85993 39.8037 10.0099 39.742 10.1205 39.6322C10.2311 39.5224 10.2933 39.3735 10.2933 39.2182Z"></path>
  <path d="M11.6476 40.1178C11.6476 40.0192 11.6181 39.9228 11.5629 39.8408C11.5077 39.7588 11.4292 39.6948 11.3374 39.6571C11.2457 39.6194 11.1446 39.6095 11.0472 39.6287C10.9497 39.648 10.8602 39.6955 10.79 39.7652C10.7197 39.835 10.6719 39.9238 10.6525 40.0206C10.6331 40.1173 10.643 40.2176 10.6811 40.3087C10.7191 40.3998 10.7835 40.4777 10.8661 40.5325C10.9487 40.5873 11.0458 40.6165 11.1452 40.6165C11.2784 40.6165 11.4062 40.564 11.5004 40.4705C11.5946 40.377 11.6476 40.2501 11.6476 40.1178Z"></path>
  <path d="M12.9634 40.8076C12.962 40.6959 12.9167 40.5891 12.8371 40.5102C12.7575 40.4312 12.65 40.3862 12.5375 40.3848C12.4245 40.3848 12.3162 40.4293 12.2363 40.5086C12.1564 40.5879 12.1116 40.6954 12.1116 40.8076C12.1116 40.9197 12.1564 41.0273 12.2363 41.1066C12.3162 41.1858 12.4245 41.2304 12.5375 41.2304C12.65 41.229 12.7575 41.184 12.8371 41.105C12.9167 41.026 12.962 40.9193 12.9634 40.8076Z"></path>
  <path d="M14.0884 41.2846C14.0895 41.2123 14.0688 41.1413 14.029 41.0808C13.9892 41.0202 13.9321 40.9729 13.8651 40.9447C13.798 40.9165 13.724 40.9089 13.6525 40.9227C13.581 40.9366 13.5153 40.9713 13.4638 41.0224C13.4124 41.0735 13.3774 41.1387 13.3635 41.2097C13.3495 41.2806 13.3572 41.3541 13.3856 41.4207C13.414 41.4872 13.4617 41.5439 13.5227 41.5834C13.5837 41.6229 13.6552 41.6434 13.728 41.6423C13.8231 41.6409 13.914 41.6028 13.9813 41.536C14.0485 41.4692 14.087 41.379 14.0884 41.2846Z"></path>
  <path d="M15.1149 41.6252C15.1208 41.5816 15.1172 41.5372 15.1043 41.495C15.0915 41.4529 15.0698 41.414 15.0406 41.3808C15.0113 41.3477 14.9753 41.3212 14.9349 41.303C14.8946 41.2848 14.8507 41.2754 14.8064 41.2754C14.762 41.2754 14.7182 41.2848 14.6778 41.303C14.6374 41.3212 14.6014 41.3477 14.5722 41.3808C14.543 41.414 14.5212 41.4529 14.5084 41.495C14.4956 41.5372 14.492 41.5816 14.4978 41.6252C14.5078 41.6994 14.5446 41.7675 14.6013 41.8168C14.6581 41.8662 14.7309 41.8933 14.8064 41.8933C14.8818 41.8933 14.9547 41.8662 15.0114 41.8168C15.0681 41.7675 15.1049 41.6994 15.1149 41.6252Z"></path>
  <path d="M41.6099 23.998C41.6099 24.4086 41.7325 24.81 41.9623 25.1514C42.1921 25.4928 42.5188 25.7589 42.9009 25.9161C43.2831 26.0732 43.7036 26.1143 44.1093 26.0342C44.515 25.9541 44.8876 25.7564 45.1801 25.466C45.4726 25.1757 45.6718 24.8057 45.7525 24.403C45.8332 24.0003 45.7918 23.5829 45.6335 23.2035C45.4752 22.8241 45.2071 22.4999 44.8632 22.2718C44.5193 22.0436 44.1149 21.9219 43.7013 21.9219C43.147 21.9233 42.6159 22.1425 42.224 22.5315C41.8321 22.9206 41.6113 23.4478 41.6099 23.998Z"></path>
  <path d="M41.3096 18.4785C41.3085 18.8282 41.412 19.1704 41.6069 19.4618C41.8019 19.7531 42.0795 19.9804 42.4047 20.115C42.7299 20.2496 43.088 20.2853 43.4337 20.2178C43.7793 20.1502 44.097 19.9823 44.3466 19.7354C44.5961 19.4885 44.7661 19.1736 44.8353 18.8307C44.9044 18.4877 44.8695 18.1322 44.7349 17.8089C44.6003 17.4857 44.3722 17.2094 44.0793 17.015C43.7864 16.8206 43.442 16.7168 43.0897 16.7168C42.6185 16.7168 42.1666 16.9022 41.8329 17.2325C41.4992 17.5627 41.311 18.0108 41.3096 18.4785Z"></path>
  <path d="M40.0154 13.9141C40.0143 14.2113 40.1021 14.5021 40.2676 14.7497C40.4332 14.9974 40.669 15.1907 40.9453 15.3052C41.2216 15.4196 41.5259 15.4501 41.8197 15.3928C42.1135 15.3355 42.3835 15.1929 42.5956 14.9831C42.8077 14.7734 42.9523 14.5058 43.0111 14.2144C43.0699 13.923 43.0403 13.6208 42.9259 13.3461C42.8116 13.0715 42.6178 12.8366 42.3689 12.6714C42.12 12.5062 41.8274 12.418 41.528 12.418C41.1278 12.418 40.7439 12.5754 40.4603 12.8558C40.1768 13.1363 40.0168 13.5168 40.0154 13.9141Z"></path>
  <path d="M38.2242 10.2728C38.221 10.5265 38.2938 10.7754 38.4334 10.9879C38.573 11.2004 38.7731 11.3669 39.0083 11.4662C39.2435 11.5655 39.5031 11.5932 39.7541 11.5457C40.0052 11.4982 40.2364 11.3776 40.4182 11.1994C40.6001 11.0212 40.7245 10.7932 40.7755 10.5447C40.8266 10.2961 40.8021 10.038 40.705 9.80331C40.608 9.56861 40.4428 9.36784 40.2306 9.22654C40.0183 9.08524 39.7685 9.00979 39.5129 9.00977C39.1721 9.00976 38.8451 9.1438 38.6036 9.38254C38.3621 9.62128 38.2257 9.94528 38.2242 10.2836"></path>
  <path d="M36.1055 7.38296C36.1055 7.59738 36.1695 7.80699 36.2895 7.98527C36.4095 8.16356 36.5801 8.30251 36.7797 8.38457C36.9792 8.46663 37.1988 8.4881 37.4106 8.44626C37.6225 8.40443 37.8171 8.30118 37.9698 8.14956C38.1226 7.99794 38.2266 7.80477 38.2687 7.59447C38.3109 7.38417 38.2892 7.16618 38.2066 6.96808C38.1239 6.76998 37.9839 6.60066 37.8043 6.48154C37.6247 6.36241 37.4136 6.29883 37.1976 6.29883C36.9079 6.29883 36.6302 6.41305 36.4253 6.61636C36.2205 6.81968 36.1055 7.09543 36.1055 7.38296Z"></path>
  <path d="M34.0032 5.21448C34.0032 5.39674 34.0576 5.57491 34.1596 5.72645C34.2616 5.87799 34.4066 5.9961 34.5762 6.06585C34.7459 6.1356 34.9325 6.15385 35.1126 6.11829C35.2927 6.08273 35.4581 5.99497 35.5879 5.86609C35.7177 5.73721 35.8061 5.57302 35.8419 5.39426C35.8778 5.2155 35.8594 5.03022 35.7891 4.86183C35.7189 4.69345 35.5999 4.54953 35.4472 4.44827C35.2946 4.34702 35.1151 4.29297 34.9315 4.29297C34.6853 4.29297 34.4492 4.39006 34.2751 4.56288C34.101 4.73569 34.0032 4.97008 34.0032 5.21448Z"></path>
  <path d="M32.021 3.63172C32.021 3.7874 32.0676 3.93958 32.1548 4.06895C32.2421 4.19832 32.3661 4.29906 32.5111 4.35839C32.6561 4.41772 32.8155 4.43296 32.9693 4.40219C33.123 4.37142 33.2641 4.29602 33.3746 4.18556C33.4851 4.07509 33.5601 3.93453 33.59 3.78171C33.6199 3.62888 33.6035 3.47068 33.5427 3.32716C33.482 3.18363 33.3796 3.06125 33.2487 2.97554C33.1178 2.88983 32.9642 2.84465 32.8073 2.84572C32.5983 2.84715 32.3983 2.93059 32.251 3.07784C32.1037 3.22509 32.021 3.4242 32.021 3.63172Z"></path>
  <path d="M30.2025 2.42306C30.2014 2.55539 30.24 2.68504 30.3134 2.79551C30.3868 2.90598 30.4916 2.99228 30.6146 3.04341C30.7375 3.09455 30.873 3.10821 31.0038 3.08265C31.1346 3.0571 31.2548 2.99349 31.349 2.89992C31.4433 2.80635 31.5074 2.68705 31.5331 2.55721C31.5589 2.42737 31.5451 2.29287 31.4936 2.17082C31.4421 2.04877 31.3552 1.94469 31.2439 1.87185C31.1326 1.799 31.002 1.76067 30.8687 1.76174C30.6915 1.76173 30.5215 1.83124 30.3957 1.9551C30.2699 2.07897 30.1985 2.24717 30.197 2.42306"></path>
  <path d="M28.4443 1.50105C28.4443 1.60826 28.4764 1.71306 28.5364 1.80221C28.5964 1.89135 28.6816 1.96083 28.7814 2.00185C28.8812 2.04288 28.991 2.05362 29.0969 2.0327C29.2029 2.01179 29.3002 1.96016 29.3765 1.88435C29.4529 1.80854 29.5049 1.71195 29.526 1.6068C29.547 1.50165 29.5362 1.39266 29.4949 1.29361C29.4536 1.19456 29.3836 1.1099 29.2938 1.05034C29.204 0.990776 29.0984 0.958984 28.9904 0.958984C28.8456 0.958984 28.7067 1.01609 28.6043 1.11775C28.5019 1.21941 28.4443 1.35729 28.4443 1.50105Z"></path>
  <path d="M26.9373 0.878923C26.9373 0.974341 26.9658 1.06762 27.0192 1.14695C27.0726 1.22629 27.1485 1.28813 27.2373 1.32464C27.3261 1.36115 27.4238 1.37071 27.5181 1.35209C27.6123 1.33348 27.6989 1.28753 27.7669 1.22006C27.8349 1.15259 27.8812 1.06663 27.8999 0.973042C27.9187 0.879458 27.909 0.782456 27.8723 0.694302C27.8355 0.606148 27.7732 0.5308 27.6933 0.477789C27.6133 0.424778 27.5194 0.396484 27.4233 0.396484C27.2944 0.396484 27.1707 0.447312 27.0796 0.537787C26.9885 0.628262 26.9373 0.750972 26.9373 0.878923Z"></path>
  <path d="M25.5664 0.406586C25.5654 0.488518 25.5889 0.568908 25.6341 0.637481C25.6793 0.706054 25.744 0.759693 25.8201 0.791544C25.8961 0.823395 25.98 0.832008 26.061 0.816285C26.1421 0.800563 26.2165 0.761219 26.2749 0.703279C26.3332 0.64534 26.3729 0.571438 26.3887 0.491021C26.4045 0.410605 26.3959 0.327328 26.3638 0.251833C26.3317 0.176338 26.2777 0.112055 26.2086 0.0672021C26.1395 0.0223495 26.0585 -0.00103592 25.976 3.52165e-05C25.8678 0.00143915 25.7645 0.0447229 25.688 0.120664C25.6115 0.196604 25.5679 0.299199 25.5664 0.406586Z"></path>
  <path d="M41.3096 29.5152C41.3096 29.1657 41.414 28.824 41.6096 28.5334C41.8052 28.2428 42.0832 28.0163 42.4085 27.8826C42.7338 27.7488 43.0917 27.7138 43.437 27.782C43.7823 27.8502 44.0995 28.0185 44.3485 28.2656C44.5974 28.5128 44.767 28.8276 44.8357 29.1704C44.9044 29.5132 44.8691 29.8685 44.7344 30.1914C44.5996 30.5143 44.3715 30.7903 44.0787 30.9845C43.786 31.1787 43.4418 31.2823 43.0897 31.2823C42.6176 31.2823 42.1648 31.0961 41.831 30.7647C41.4971 30.4333 41.3096 29.9839 41.3096 29.5152Z"></path>
  <path d="M40.0154 34.0788C40.0133 33.7813 40.1001 33.49 40.265 33.2416C40.4299 32.9933 40.6654 32.7991 40.9416 32.6838C41.2177 32.5685 41.5222 32.5372 41.8163 32.5939C42.1105 32.6507 42.381 32.7928 42.5936 33.0024C42.8063 33.2119 42.9514 33.4794 43.0107 33.771C43.0699 34.0626 43.0406 34.365 42.9265 34.64C42.8123 34.915 42.6185 35.1502 42.3695 35.3156C42.1205 35.4811 41.8276 35.5695 41.528 35.5695C41.1268 35.5695 40.7421 35.4113 40.4584 35.1297C40.1748 34.8481 40.0154 34.4662 40.0154 34.0679"></path>
  <path d="M38.2241 37.7378C38.2231 37.4846 38.2977 37.2367 38.4387 37.0256C38.5796 36.8145 38.7805 36.6497 39.0159 36.5521C39.2513 36.4544 39.5105 36.4283 39.7609 36.477C40.0112 36.5258 40.2414 36.6472 40.4221 36.8259C40.6029 37.0046 40.7262 37.2325 40.7764 37.4808C40.8265 37.7291 40.8013 37.9866 40.704 38.2207C40.6066 38.4548 40.4414 38.6549 40.2294 38.7957C40.0173 38.9365 39.7679 39.0117 39.5128 39.0117C39.172 39.0117 38.845 38.8776 38.6035 38.6389C38.362 38.4002 38.2256 38.0762 38.2241 37.7378Z"></path>
  <path d="M36.1055 40.6271C36.1055 40.4127 36.1695 40.2031 36.2895 40.0248C36.4095 39.8465 36.5801 39.7075 36.7797 39.6255C36.9792 39.5434 37.1988 39.522 37.4106 39.5638C37.6225 39.6056 37.8171 39.7089 37.9698 39.8605C38.1226 40.0121 38.2266 40.2053 38.2687 40.4156C38.3109 40.6259 38.2892 40.8439 38.2066 41.042C38.1239 41.2401 37.9839 41.4094 37.8043 41.5285C37.6247 41.6477 37.4136 41.7112 37.1976 41.7112C36.9079 41.7112 36.6302 41.597 36.4253 41.3937C36.2205 41.1904 36.1055 40.9146 36.1055 40.6271Z"></path>
  <path d="M34.0032 42.7907C34.0032 42.6084 34.0576 42.4302 34.1596 42.2787C34.2616 42.1271 34.4066 42.009 34.5762 41.9393C34.7459 41.8695 34.9325 41.8513 35.1126 41.8868C35.2927 41.9224 35.4581 42.0102 35.5879 42.139C35.7177 42.2679 35.8061 42.4321 35.8419 42.6109C35.8778 42.7896 35.8594 42.9749 35.7891 43.1433C35.7189 43.3117 35.5999 43.4556 35.4472 43.5569C35.2946 43.6581 35.1151 43.7122 34.9315 43.7122C34.6853 43.7122 34.4492 43.6151 34.2751 43.4423C34.101 43.2694 34.0032 43.0351 34.0032 42.7907Z"></path>
  <path d="M32.021 44.3676C32.0199 44.2117 32.0656 44.059 32.1522 43.9289C32.2388 43.7988 32.3624 43.6972 32.5073 43.637C32.6522 43.5769 32.8118 43.5609 32.9659 43.591C33.12 43.6212 33.2616 43.6961 33.3727 43.8064C33.4837 43.9166 33.5592 44.0572 33.5896 44.2102C33.62 44.3631 33.6039 44.5216 33.5433 44.6654C33.4826 44.8093 33.3803 44.932 33.2493 45.0179C33.1182 45.1039 32.9644 45.1492 32.8073 45.1481C32.5988 45.1481 32.3988 45.0659 32.2513 44.9195C32.1039 44.7731 32.021 44.5746 32.021 44.3676Z"></path>
  <path d="M30.2025 45.571C30.2025 45.4389 30.242 45.3098 30.3161 45.2C30.3901 45.0903 30.4953 45.0048 30.6184 44.9545C30.7414 44.9042 30.8768 44.8913 31.0072 44.9175C31.1376 44.9437 31.2573 45.0077 31.351 45.1015C31.4447 45.1953 31.5082 45.3146 31.5335 45.4443C31.5588 45.574 31.5448 45.7082 31.4931 45.83C31.4414 45.9517 31.3545 46.0554 31.2433 46.128C31.1321 46.2006 31.0017 46.2388 30.8687 46.2378C30.6905 46.2378 30.5197 46.1675 30.3937 46.0425C30.2678 45.9174 30.197 45.7478 30.197 45.571"></path>
  <path d="M28.4443 46.4932C28.4443 46.386 28.4764 46.2812 28.5364 46.1921C28.5964 46.1029 28.6816 46.0335 28.7814 45.9924C28.8812 45.9514 28.991 45.9407 29.0969 45.9616C29.2029 45.9825 29.3002 46.0341 29.3765 46.1099C29.4529 46.1858 29.5049 46.2823 29.526 46.3875C29.547 46.4926 29.5362 46.6016 29.4949 46.7007C29.4536 46.7997 29.3836 46.8844 29.2938 46.9439C29.204 47.0035 29.0984 47.0353 28.9904 47.0353C28.8456 47.0353 28.7067 46.9782 28.6043 46.8765C28.5019 46.7749 28.4443 46.637 28.4443 46.4932Z"></path>
  <path d="M26.937 47.1328C26.937 47.0374 26.9655 46.9441 27.0189 46.8648C27.0723 46.7855 27.1482 46.7236 27.2371 46.6871C27.3259 46.6506 27.4236 46.641 27.5178 46.6597C27.6121 46.6783 27.6987 46.7242 27.7667 46.7917C27.8347 46.8592 27.8809 46.9451 27.8997 47.0387C27.9184 47.1323 27.9088 47.2293 27.872 47.3175C27.8353 47.4056 27.773 47.481 27.693 47.534C27.6131 47.587 27.5192 47.6153 27.423 47.6153C27.359 47.616 27.2955 47.604 27.2362 47.58C27.1769 47.556 27.123 47.5205 27.0778 47.4756C27.0325 47.4306 26.9967 47.3772 26.9725 47.3183C26.9484 47.2594 26.9363 47.1964 26.937 47.1328Z"></path>
  <path d="M25.5665 47.5874C25.5781 47.487 25.6266 47.3944 25.7026 47.3271C25.7786 47.2598 25.8769 47.2227 25.9787 47.2227C26.0806 47.2227 26.1788 47.2598 26.2549 47.3271C26.3309 47.3944 26.3793 47.487 26.391 47.5874C26.3977 47.6451 26.392 47.7036 26.3744 47.759C26.3567 47.8144 26.3275 47.8654 26.2885 47.9087C26.2496 47.9521 26.2019 47.9868 26.1485 48.0106C26.0951 48.0343 26.0372 48.0466 25.9787 48.0466C25.9202 48.0466 25.8624 48.0343 25.809 48.0106C25.7556 47.9868 25.7079 47.9521 25.6689 47.9087C25.63 47.8654 25.6007 47.8144 25.5831 47.759C25.5654 47.7036 25.5598 47.6451 25.5665 47.5874Z"></path>
  <path d="M16.551 10.0723H22.6014V31.511H33.2059V36.5414H16.551V10.0723Z" fill="#171717"></path>
</svg>